<mxfile host="app.diagrams.net" modified="2024-01-19T19:00:27.063Z" agent="Mozilla/5.0 (Macintosh; Intel Mac OS X 10_15_7) AppleWebKit/537.36 (KHTML, like Gecko) Chrome/120.0.0.0 Safari/537.36" etag="EmJD6BMkBZm7vkF4G7h2" version="22.1.21" type="device">
  <diagram name="Page-1" id="aluMsOwEPsuUAzRNVTVB">
    <mxGraphModel dx="1306" dy="847" grid="1" gridSize="10" guides="1" tooltips="1" connect="1" arrows="1" fold="1" page="1" pageScale="1" pageWidth="850" pageHeight="1100" math="0" shadow="0">
      <root>
        <mxCell id="0" />
        <mxCell id="1" parent="0" />
        <mxCell id="b44iZXVpt2lIwhsImo-i-1" value="" style="whiteSpace=wrap;html=1;aspect=fixed;" vertex="1" parent="1">
          <mxGeometry x="30" y="115" width="80" height="80" as="geometry" />
        </mxCell>
        <mxCell id="b44iZXVpt2lIwhsImo-i-2" value="" style="ellipse;whiteSpace=wrap;html=1;aspect=fixed;fillColor=#f8cecc;strokeColor=#b85450;" vertex="1" parent="1">
          <mxGeometry x="250" y="115" width="80" height="80" as="geometry" />
        </mxCell>
        <mxCell id="b44iZXVpt2lIwhsImo-i-3" value="" style="endArrow=none;dashed=1;html=1;dashPattern=1 3;strokeWidth=2;rounded=0;" edge="1" parent="1" source="b44iZXVpt2lIwhsImo-i-1" target="b44iZXVpt2lIwhsImo-i-2">
          <mxGeometry width="50" height="50" relative="1" as="geometry">
            <mxPoint x="250" y="425" as="sourcePoint" />
            <mxPoint x="300" y="375" as="targetPoint" />
          </mxGeometry>
        </mxCell>
        <mxCell id="b44iZXVpt2lIwhsImo-i-4" value="" style="html=1;shadow=0;dashed=0;align=center;verticalAlign=middle;shape=mxgraph.arrows2.arrow;dy=0.6;dx=40;notch=0;" vertex="1" parent="1">
          <mxGeometry x="375" y="120" width="100" height="70" as="geometry" />
        </mxCell>
        <mxCell id="b44iZXVpt2lIwhsImo-i-5" value="" style="whiteSpace=wrap;html=1;aspect=fixed;" vertex="1" parent="1">
          <mxGeometry x="620" y="115" width="80" height="80" as="geometry" />
        </mxCell>
        <mxCell id="b44iZXVpt2lIwhsImo-i-6" value="&lt;font style=&quot;font-size: 24px;&quot;&gt;Removal of a Leaf&lt;/font&gt;" style="text;html=1;align=center;verticalAlign=middle;resizable=0;points=[];autosize=1;strokeColor=none;fillColor=none;" vertex="1" parent="1">
          <mxGeometry x="315" y="230" width="220" height="40" as="geometry" />
        </mxCell>
        <mxCell id="b44iZXVpt2lIwhsImo-i-8" value="" style="ellipse;whiteSpace=wrap;html=1;aspect=fixed;fillColor=#f8cecc;strokeColor=#b85450;" vertex="1" parent="1">
          <mxGeometry x="30" y="340" width="80" height="80" as="geometry" />
        </mxCell>
        <mxCell id="b44iZXVpt2lIwhsImo-i-9" value="" style="ellipse;whiteSpace=wrap;html=1;aspect=fixed;" vertex="1" parent="1">
          <mxGeometry x="250" y="340" width="80" height="80" as="geometry" />
        </mxCell>
        <mxCell id="b44iZXVpt2lIwhsImo-i-10" value="" style="endArrow=none;html=1;rounded=0;" edge="1" parent="1" source="b44iZXVpt2lIwhsImo-i-8" target="b44iZXVpt2lIwhsImo-i-9">
          <mxGeometry width="50" height="50" relative="1" as="geometry">
            <mxPoint x="400" y="400" as="sourcePoint" />
            <mxPoint x="450" y="350" as="targetPoint" />
          </mxGeometry>
        </mxCell>
        <mxCell id="b44iZXVpt2lIwhsImo-i-11" value="" style="curved=1;endArrow=classic;html=1;rounded=0;entryX=0.5;entryY=0;entryDx=0;entryDy=0;" edge="1" parent="1" source="b44iZXVpt2lIwhsImo-i-9" target="b44iZXVpt2lIwhsImo-i-8">
          <mxGeometry width="50" height="50" relative="1" as="geometry">
            <mxPoint x="400" y="400" as="sourcePoint" />
            <mxPoint x="450" y="350" as="targetPoint" />
            <Array as="points">
              <mxPoint x="280" y="320" />
              <mxPoint x="160" y="290" />
            </Array>
          </mxGeometry>
        </mxCell>
        <mxCell id="b44iZXVpt2lIwhsImo-i-12" value="" style="curved=1;endArrow=classic;html=1;rounded=0;" edge="1" parent="1" source="b44iZXVpt2lIwhsImo-i-8" target="b44iZXVpt2lIwhsImo-i-9">
          <mxGeometry width="50" height="50" relative="1" as="geometry">
            <mxPoint x="400" y="400" as="sourcePoint" />
            <mxPoint x="450" y="350" as="targetPoint" />
            <Array as="points">
              <mxPoint x="140" y="480" />
              <mxPoint x="290" y="460" />
            </Array>
          </mxGeometry>
        </mxCell>
        <mxCell id="b44iZXVpt2lIwhsImo-i-13" value="" style="html=1;shadow=0;dashed=0;align=center;verticalAlign=middle;shape=mxgraph.arrows2.arrow;dy=0.6;dx=40;notch=0;" vertex="1" parent="1">
          <mxGeometry x="375" y="345" width="100" height="70" as="geometry" />
        </mxCell>
        <mxCell id="b44iZXVpt2lIwhsImo-i-14" value="" style="ellipse;whiteSpace=wrap;html=1;aspect=fixed;" vertex="1" parent="1">
          <mxGeometry x="620" y="340" width="80" height="80" as="geometry" />
        </mxCell>
        <mxCell id="b44iZXVpt2lIwhsImo-i-15" value="&lt;font style=&quot;font-size: 24px;&quot;&gt;Intentional Parent Removal&lt;/font&gt;" style="text;html=1;align=center;verticalAlign=middle;resizable=0;points=[];autosize=1;strokeColor=none;fillColor=none;" vertex="1" parent="1">
          <mxGeometry x="270" y="493" width="310" height="40" as="geometry" />
        </mxCell>
        <mxCell id="b44iZXVpt2lIwhsImo-i-16" value="" style="whiteSpace=wrap;html=1;aspect=fixed;" vertex="1" parent="1">
          <mxGeometry x="20" y="640" width="80" height="80" as="geometry" />
        </mxCell>
        <mxCell id="b44iZXVpt2lIwhsImo-i-17" value="" style="ellipse;whiteSpace=wrap;html=1;aspect=fixed;fillColor=#f8cecc;strokeColor=#b85450;" vertex="1" parent="1">
          <mxGeometry x="160" y="580" width="80" height="80" as="geometry" />
        </mxCell>
        <mxCell id="b44iZXVpt2lIwhsImo-i-18" value="" style="ellipse;whiteSpace=wrap;html=1;aspect=fixed;" vertex="1" parent="1">
          <mxGeometry x="160" y="700" width="80" height="80" as="geometry" />
        </mxCell>
        <mxCell id="b44iZXVpt2lIwhsImo-i-19" value="" style="ellipse;whiteSpace=wrap;html=1;aspect=fixed;" vertex="1" parent="1">
          <mxGeometry x="280" y="640" width="80" height="80" as="geometry" />
        </mxCell>
        <mxCell id="b44iZXVpt2lIwhsImo-i-20" value="" style="endArrow=none;html=1;rounded=0;entryX=0.063;entryY=0.75;entryDx=0;entryDy=0;entryPerimeter=0;" edge="1" parent="1" source="b44iZXVpt2lIwhsImo-i-16" target="b44iZXVpt2lIwhsImo-i-17">
          <mxGeometry width="50" height="50" relative="1" as="geometry">
            <mxPoint x="400" y="580" as="sourcePoint" />
            <mxPoint x="170" y="630" as="targetPoint" />
          </mxGeometry>
        </mxCell>
        <mxCell id="b44iZXVpt2lIwhsImo-i-22" value="" style="endArrow=none;html=1;rounded=0;" edge="1" parent="1" source="b44iZXVpt2lIwhsImo-i-16" target="b44iZXVpt2lIwhsImo-i-18">
          <mxGeometry width="50" height="50" relative="1" as="geometry">
            <mxPoint x="110" y="690" as="sourcePoint" />
            <mxPoint x="290" y="690" as="targetPoint" />
          </mxGeometry>
        </mxCell>
        <mxCell id="b44iZXVpt2lIwhsImo-i-23" value="" style="endArrow=none;html=1;rounded=0;" edge="1" parent="1" source="b44iZXVpt2lIwhsImo-i-17" target="b44iZXVpt2lIwhsImo-i-19">
          <mxGeometry width="50" height="50" relative="1" as="geometry">
            <mxPoint x="110" y="675" as="sourcePoint" />
            <mxPoint x="175" y="650" as="targetPoint" />
          </mxGeometry>
        </mxCell>
        <mxCell id="b44iZXVpt2lIwhsImo-i-24" value="" style="endArrow=none;html=1;rounded=0;" edge="1" parent="1" source="b44iZXVpt2lIwhsImo-i-18" target="b44iZXVpt2lIwhsImo-i-19">
          <mxGeometry width="50" height="50" relative="1" as="geometry">
            <mxPoint x="246" y="648" as="sourcePoint" />
            <mxPoint x="294" y="672" as="targetPoint" />
          </mxGeometry>
        </mxCell>
        <mxCell id="b44iZXVpt2lIwhsImo-i-25" value="" style="shape=flexArrow;endArrow=classic;startArrow=classic;html=1;rounded=0;" edge="1" parent="1">
          <mxGeometry width="100" height="100" relative="1" as="geometry">
            <mxPoint x="310" y="630" as="sourcePoint" />
            <mxPoint x="250" y="600" as="targetPoint" />
          </mxGeometry>
        </mxCell>
        <mxCell id="b44iZXVpt2lIwhsImo-i-26" value="" style="html=1;shadow=0;dashed=0;align=center;verticalAlign=middle;shape=mxgraph.arrows2.arrow;dy=0.6;dx=40;notch=0;" vertex="1" parent="1">
          <mxGeometry x="375" y="645" width="100" height="70" as="geometry" />
        </mxCell>
        <mxCell id="b44iZXVpt2lIwhsImo-i-27" value="" style="whiteSpace=wrap;html=1;aspect=fixed;" vertex="1" parent="1">
          <mxGeometry x="560" y="645" width="80" height="80" as="geometry" />
        </mxCell>
        <mxCell id="b44iZXVpt2lIwhsImo-i-28" value="" style="ellipse;whiteSpace=wrap;html=1;aspect=fixed;" vertex="1" parent="1">
          <mxGeometry x="680" y="700" width="80" height="80" as="geometry" />
        </mxCell>
        <mxCell id="b44iZXVpt2lIwhsImo-i-29" value="" style="ellipse;whiteSpace=wrap;html=1;aspect=fixed;" vertex="1" parent="1">
          <mxGeometry x="680" y="580" width="80" height="80" as="geometry" />
        </mxCell>
        <mxCell id="b44iZXVpt2lIwhsImo-i-30" value="" style="endArrow=none;html=1;rounded=0;" edge="1" parent="1" source="b44iZXVpt2lIwhsImo-i-27" target="b44iZXVpt2lIwhsImo-i-29">
          <mxGeometry width="50" height="50" relative="1" as="geometry">
            <mxPoint x="460" y="580" as="sourcePoint" />
            <mxPoint x="510" y="530" as="targetPoint" />
          </mxGeometry>
        </mxCell>
        <mxCell id="b44iZXVpt2lIwhsImo-i-31" value="" style="endArrow=none;html=1;rounded=0;" edge="1" parent="1" source="b44iZXVpt2lIwhsImo-i-27" target="b44iZXVpt2lIwhsImo-i-28">
          <mxGeometry width="50" height="50" relative="1" as="geometry">
            <mxPoint x="650" y="673" as="sourcePoint" />
            <mxPoint x="695" y="649" as="targetPoint" />
          </mxGeometry>
        </mxCell>
        <mxCell id="b44iZXVpt2lIwhsImo-i-32" value="&lt;font style=&quot;font-size: 24px;&quot;&gt;Unintentional Parent Removal&lt;/font&gt;" style="text;html=1;align=center;verticalAlign=middle;resizable=0;points=[];autosize=1;strokeColor=none;fillColor=none;" vertex="1" parent="1">
          <mxGeometry x="255" y="800" width="340" height="40" as="geometry" />
        </mxCell>
      </root>
    </mxGraphModel>
  </diagram>
</mxfile>
